<?xml version="1.0" standalone="no"?>
<!DOCTYPE svg PUBLIC "-//W3C//DTD SVG 20010904//EN"
 "http://www.w3.org/TR/2001/REC-SVG-20010904/DTD/svg10.dtd">
<svg version="1.0" xmlns="http://www.w3.org/2000/svg"
 width="500.000000pt" height="500.000000pt" viewBox="0 0 500.000000 500.000000"
 preserveAspectRatio="xMidYMid meet">
<metadata>
Created by potrace 1.14, written by Peter Selinger 2001-2017
</metadata>
<g transform="translate(0.000000,500.000000) scale(0.100000,-0.100000)"
fill="#000000" stroke="none">
<path d="M4108 4488 c-2 -7 -4 -38 -3 -68 l1 -55 70 0 69 0 1 68 1 67 -67 0
c-45 0 -69 -4 -72 -12z"/>
<path d="M2023 4430 c-71 -7 -93 -27 -94 -87 0 -27 -1 -65 -2 -86 -1 -20 2
-37 6 -37 5 0 5 -5 1 -12 -10 -17 -3 -156 10 -176 3 -6 2 -13 -3 -16 -5 -4 -6
-17 -1 -34 5 -15 16 -70 26 -122 9 -52 25 -124 36 -160 11 -36 21 -69 22 -75
1 -5 7 -23 13 -40 15 -41 24 -69 24 -75 0 -3 6 -14 13 -25 7 -11 15 -31 19
-45 3 -14 17 -59 32 -100 22 -60 27 -93 27 -165 0 -108 -4 -155 -14 -155 -5 0
-8 -6 -8 -13 0 -7 -13 -38 -30 -70 -23 -44 -94 -122 -304 -335 -151 -152 -354
-358 -451 -457 -97 -99 -312 -316 -476 -482 -164 -166 -299 -304 -299 -307 0
-2 90 -67 201 -143 111 -76 207 -144 214 -151 8 -6 18 -12 22 -12 5 0 18 -8
29 -18 32 -28 141 -102 152 -102 6 0 12 -4 14 -9 5 -14 174 -123 258 -168 66
-34 134 -65 235 -108 87 -37 302 -99 385 -111 19 -3 46 -7 60 -10 78 -15 147
-19 350 -19 124 0 248 4 275 8 28 4 65 10 84 12 42 5 141 25 161 33 8 3 24 7
35 9 11 2 27 6 35 10 8 3 20 7 25 8 6 1 12 3 15 4 3 1 14 4 26 6 65 13 360
142 398 174 10 9 21 15 25 13 7 -3 375 238 411 271 8 7 32 24 53 36 20 12 37
27 37 32 0 5 3 8 8 7 6 -2 59 29 72 42 15 15 100 70 109 70 6 0 11 4 11 8 0 5
32 29 70 53 39 24 70 48 70 54 0 5 -46 56 -103 112 -56 56 -310 313 -563 570
-254 257 -546 554 -649 658 -189 191 -221 234 -256 340 -20 63 -16 209 9 280
11 33 45 131 76 218 31 86 53 157 50 157 -4 0 -2 6 3 13 6 6 18 46 27 87 23
108 25 117 31 184 3 34 8 75 11 91 4 26 8 241 5 303 -2 43 -34 62 -109 62 -63
0 -70 -2 -107 -35 -40 -36 -159 -100 -205 -112 -14 -3 -72 -7 -130 -9 -89 -2
-115 1 -173 21 -70 24 -148 69 -189 109 -28 28 -48 33 -115 26z"/>
<path d="M672 4360 c-4 -3 -7 -34 -7 -70 l1 -65 70 -3 70 -2 0 64 c-1 35 -4
68 -9 72 -8 9 -115 12 -125 4z"/>
<path d="M3614 3940 l2 -71 -62 2 c-34 1 -66 -1 -72 -5 -6 -3 -10 -35 -9 -71
l1 -64 71 -3 70 -3 -2 -67 -2 -68 72 0 72 0 -1 62 c-1 35 -2 66 -3 71 -1 4
-32 7 -70 7 l-69 0 2 68 2 67 69 5 70 5 1 68 0 67 -72 0 -72 0 2 -70z"/>
<path d="M3759 3868 c-1 -2 -3 -34 -4 -71 l-2 -68 70 3 71 3 1 68 1 67 -68 0
c-37 0 -69 -1 -69 -2z"/>
<path d="M1444 3368 c-11 -17 -11 -88 0 -88 4 0 3 -6 -3 -14 -18 -21 4 -30 74
-31 l60 0 3 -67 c2 -50 0 -68 -10 -69 -7 0 -40 -1 -73 -2 -58 -2 -60 -3 -60
-29 -1 -16 3 -28 8 -28 4 0 5 -5 2 -11 -11 -17 -13 -59 -3 -65 14 -9 113 -8
127 0 6 4 11 35 11 72 l0 64 68 0 69 0 2 33 c1 17 2 39 1 47 0 8 0 24 0 35 -1
18 -8 21 -66 22 -37 1 -68 3 -70 6 -2 2 -4 33 -5 70 l-2 67 -63 0 c-37 0 -66
-5 -70 -12z"/>
<path d="M1295 3169 l0 -69 71 0 c55 0 73 4 78 15 3 8 2 15 -2 15 -4 0 -7 24
-7 52 l0 53 -70 1 -70 2 0 -69z"/>
<path d="M3899 2746 c-1 0 -2 -33 -3 -71 l-2 -70 36 1 c19 1 51 3 70 3 l36 1
-1 68 -1 67 -67 1 c-37 1 -67 1 -68 0z"/>
<path d="M879 2459 c-1 -12 -1 -105 0 -121 1 -9 21 -13 68 -12 l68 1 0 69 0
69 -67 1 c-38 1 -68 -2 -69 -7z"/>
</g>
</svg>
