<?xml version="1.0" standalone="no"?>
<!DOCTYPE svg PUBLIC "-//W3C//DTD SVG 20010904//EN"
 "http://www.w3.org/TR/2001/REC-SVG-20010904/DTD/svg10.dtd">
<svg version="1.0" xmlns="http://www.w3.org/2000/svg"
 width="245.000000pt" height="245.000000pt" viewBox="0 0 245.000000 245.000000"
 preserveAspectRatio="xMidYMid meet">
<metadata>
Created by potrace 1.14, written by Peter Selinger 2001-2017
</metadata>
<g transform="translate(0.000000,245.000000) scale(0.100000,-0.100000)"
fill="#000000" stroke="none">
<path d="M1009 2434 c-171 -31 -350 -105 -498 -207 -207 -143 -395 -405 -464
-647 -67 -234 -62 -517 12 -736 27 -83 90 -218 97 -212 3 3 -8 33 -25 67 -38
74 -76 185 -97 283 -25 116 -30 325 -10 443 86 511 493 918 1001 1001 119 19
350 14 460 -10 171 -38 354 -125 488 -233 75 -60 183 -167 199 -198 6 -11 -29
21 -78 70 -119 121 -207 185 -339 250 -178 86 -342 125 -531 125 -515 0 -974
-332 -1142 -825 -41 -120 -57 -224 -56 -365 0 -199 32 -351 108 -516 20 -43
34 -85 31 -93 -9 -23 99 -175 190 -265 123 -123 333 -257 410 -261 16 -1 70
-14 118 -28 125 -38 193 -47 345 -47 271 0 506 79 725 244 238 179 413 469
456 756 32 209 31 203 26 108 -16 -285 -140 -555 -354 -768 -53 -53 -130 -118
-173 -145 -112 -73 -117 -77 -73 -56 133 64 307 225 410 380 140 211 205 426
205 681 0 255 -65 470 -206 682 -183 275 -477 465 -811 523 -105 18 -321 18
-424 -1z m0 -584 c58 -6 96 -17 126 -34 44 -26 52 -37 65 -93 11 -46 -7 -41
-20 5 -21 80 -84 107 -250 107 -180 -1 -250 -33 -250 -116 0 -66 37 -83 237
-109 78 -11 161 -24 184 -30 99 -27 132 -119 66 -185 -44 -44 -115 -58 -271
-53 -136 3 -173 17 -213 78 -23 34 -31 90 -13 90 6 0 10 -9 10 -20 0 -49 29
-90 77 -112 41 -19 66 -22 168 -22 183 0 255 31 255 112 0 76 -41 96 -253 123
-176 22 -222 35 -248 67 -21 27 -26 91 -8 124 15 28 90 59 168 68 36 4 71 8
76 9 6 0 48 -3 94 -9z m924 -220 c-12 -11 -1314 -870 -1319 -870 -2 0 -4 6 -3
13 0 15 1310 878 1322 870 5 -3 5 -9 0 -13z m-563 -610 l0 -120 89 0 90 0 138
120 c76 66 145 120 152 120 9 0 11 -3 5 -8 -5 -5 -71 -62 -146 -127 -76 -65
-138 -119 -138 -120 0 -1 66 -58 146 -126 80 -68 141 -125 135 -127 -6 -2 -77
53 -158 122 l-146 126 -84 0 -83 0 0 -125 c0 -77 -4 -125 -10 -125 -6 0 -10
92 -10 255 0 163 4 255 10 255 6 0 10 -47 10 -120z"/>
<path d="M1770 140 c-9 -6 -10 -10 -3 -10 6 0 15 5 18 10 8 12 4 12 -15 0z"/>
<path d="M1468 33 c7 -3 16 -2 19 1 4 3 -2 6 -13 5 -11 0 -14 -3 -6 -6z"/>
<path d="M1018 23 c6 -2 18 -2 25 0 6 3 1 5 -13 5 -14 0 -19 -2 -12 -5z"/>
<path d="M1408 23 c6 -2 18 -2 25 0 6 3 1 5 -13 5 -14 0 -19 -2 -12 -5z"/>
<path d="M1093 13 c9 -2 25 -2 35 0 9 3 1 5 -18 5 -19 0 -27 -2 -17 -5z"/>
<path d="M1318 13 c12 -2 30 -2 40 0 9 3 -1 5 -23 4 -22 0 -30 -2 -17 -4z"/>
</g>
</svg>
