<svg xmlns="http://www.w3.org/2000/svg" version="1.0" viewBox="0 0 500 500"><path d="M411 51v12h14V50h-7l-7 1zm-209 6c-7 1-9 3-9 9a216 216 0 0 1 0 12v1c-1 2 0 16 1 18v5l3 12a163 163 0 0 0 12 42l4 10c2 6 2 9 2 17l-1 15-1 1-3 7c-2 5-9 13-30 34l-46 46-47 48-30 30a419 419 0 0 0 47 33 95 95 0 0 0 16 11 177 177 0 0 0 50 28l38 11 6 1c8 1 15 2 35 2l28-1 8-2a121 121 0 0 0 27-6h3a223 223 0 0 0 42-19 571 571 0 0 0 70-47l7-5 7-6-10-11-57-57-64-65c-19-20-23-24-26-34-2-7-2-21 1-28a1546 1546 0 0 1 15-48c3-11 3-12 3-18l2-10V63c0-4-3-6-11-6-6 0-7 0-10 3-4 4-16 10-21 12l-13 1c-9 0-11-1-17-3-7-2-15-6-19-10-3-3-5-4-12-3zM67 64v14h14v-6l-1-8H67zm294 42 1 7h-14l-1 7v7h15l-1 7v7h15l-1-6v-7l-7-1h-7v-7l1-6 7-1h7V99h-15v7z"/><path d="M376 113v7l-1 7h7l7-1 1-6v-7h-14zm-232 50v10c-2 3 0 3 7 4h7v6l-1 7h-7c-6 0-6 1-6 3v3l1 1c-2 2-2 6-1 7h13l1-8v-6h14v-11c0-2-1-3-7-3h-7v-14h-7l-7 1z"/><path d="M130 183v7h7c5 0 7 0 7-2v-12h-14v7zm260 42v7l-1 7h15v-7l-1-7h-13zM88 254v12l7 1h7v-14h-7l-7 1z"/></svg>