<svg xmlns="http://www.w3.org/2000/svg" data-name="Layer 1" viewBox="0 0 598.4 519.4"><path fill="#f2f2f2" d="m554 481.3 16.1-5a54.6 54.6 0 0 0-.3-26.3c-6.5 14.4-25.5 18-36.3 29.4a32.8 32.8 0 0 0-8.4 27.2l-3.4 11.5a55 55 0 0 0 40-22.8 53.1 53.1 0 0 0 6.2-11.8c-6.9-.7-13.9-2.2-13.9-2.2Z"/><path fill="#f2f2f2" d="m536.8 460 12.2-11.7a54.6 54.6 0 0 0-12.1-23.3c.6 15.8-14.8 27.4-19.4 42.5a32.8 32.8 0 0 0 4.6 28l2.1 11.9a55 55 0 0 0 25.7-38.2 53.1 53.1 0 0 0 .3-13.4c-6.4 2.5-13.4 4.3-13.4 4.3Z"/><path fill="#3f3d56" d="M456 34.5H1.9a1.8 1.8 0 0 1 0-3.6H456a1.8 1.8 0 0 1 0 3.6Z"/><ellipse cx="32.7" cy="10.8" fill="#3f3d56" rx="10.6" ry="10.8"/><ellipse cx="69.3" cy="10.8" fill="#3f3d56" rx="10.6" ry="10.8"/><ellipse cx="105.8" cy="10.8" fill="#3f3d56" rx="10.6" ry="10.8"/><path fill="#3f3d56" d="M434 2.7h-26a2 2 0 0 0 0 4h26a2 2 0 0 0 0-4Zm0 7.3h-26a2 2 0 0 0 0 4h26a2 2 0 0 0 0-4Zm0 7.4h-26a2 2 0 0 0 0 4h26a2 2 0 0 0 0-4Z"/><circle cx="35.2" cy="94.8" r="13.1" fill="#e6e7e8"/><path fill="#e6e7e8" d="M368.5 123.8H26a3.9 3.9 0 1 1 0-7.8h342.5a3.9 3.9 0 1 1 0 7.8Zm-89.8 15.4H26a3.9 3.9 0 0 1 0-7.8h252.7a3.9 3.9 0 1 1 0 7.8Z"/><circle cx="35.2" cy="299.1" r="13.1" fill="#e6e7e8"/><path fill="#e6e7e8" d="M368.5 328H26a3.9 3.9 0 1 1 0-7.7h342.5a4.4 4.4 0 0 1 4.1 4.2 3.8 3.8 0 0 1-4 3.6Zm-89.8 15.5H26a3.9 3.9 0 0 1 0-7.8h252.7a3.9 3.9 0 1 1 0 7.8Z"/><circle cx="35.2" cy="189.2" r="13.1" fill="#e6e7e8"/><path fill="#e6e7e8" d="M368.5 218.2H26a3.9 3.9 0 1 1 0-7.8h342.5a3.9 3.9 0 1 1 0 7.8Zm-47.7 15.4H26a3.9 3.9 0 0 1 0-7.8h294.8a3.9 3.9 0 0 1 0 7.8Zm-20 15.4H26a3.9 3.9 0 0 1 0-7.8h274.8a3.9 3.9 0 1 1 0 7.8Z"/><circle cx="306.5" cy="324.4" r="96.9" fill="#b85252"/><circle cx="306.4" cy="344.4" r="13.8" fill="#3f3d56"/><circle cx="306.4" cy="344.4" r="6.4" fill="#b85252"/><path fill="#fff" d="M332 375.2h-51a19.1 19.1 0 0 1-19.2-19v-23.5a19.1 19.1 0 0 1 19.1-19.1h51.2a19.1 19.1 0 0 1 19 19v23.5a19.1 19.1 0 0 1-19 19.1Zm-51-59.6a17.1 17.1 0 0 0-17.2 17v23.5a17.1 17.1 0 0 0 17.1 17.1h51.2a17.1 17.1 0 0 0 17-17v-23.5a17.1 17.1 0 0 0-17-17.1Z"/><path fill="#3f3d56" d="M277.9 362.5h45.4a18 18 0 0 0 18-18V325a17.9 17.9 0 0 0-1.3-6.3 17.9 17.9 0 0 1 7.2 14.3v19.6a18 18 0 0 1-18 18h-45.4a18 18 0 0 1-16.7-11.7 17.8 17.8 0 0 0 10.8 3.7Z"/><path fill="#a0616a" d="M416.9 506.5h-11.1l-5.4-43h16.5v43z"/><path fill="#2f2e41" d="M417.3 518.2H383v-.5a13.4 13.4 0 0 1 13.4-13.3l6.2-4.8 11.7 4.8h3Z"/><path fill="#a0616a" d="M495.8 506.5H507l5.3-43h-16.5v43z"/><path fill="#2f2e41" d="M495.4 518.2h34.3v-.5a13.4 13.4 0 0 0-13.3-13.3l-6.3-4.8-11.7 4.8h-3ZM400 431.9c.1-2.5 1.4-16 1.4-16l3.2-28.8 5.5-76.4.4-5 29-5.5 19.7-9.5 23.6 7.5 18.3 6.9.2 6.5a44 44 0 0 0 1.3 11.8c1.3 2.6 1 16.7 1 16.7s1.2 28.6 2.9 31.8 2 9.6 1.5 11 1.6 35.6 1.6 35.6 5.5 60.8 2 70-16.4 3.2-16.4 3.2.6-2.5-3.1-3.7-15.3-87.3-15.3-87.3-2-17.7-4-22.8-3.8-19.3-3.8-19.3-12.1-23.5-12.3-28.8c0 0-1.6-4.9-3 .5s-6 18.3-6 18.3l-4.3 16-5 23.6-3.3 20s-5 26.5-5.7 27.6 0 25.4 0 25.4-3.8 20.6-9.2 24.2-19.6 0-19.6 0-.8-51-.6-53.5Z"/><path fill="#2f2e41" d="m412.3 236.1 6.5 19.4-8 9.5 3.5 3.6-2.6 5.1L405 327l36.9 14 12.4-15.6 9.8 15.6 42.7-10.4-10.9-68v-4.5l-3.1-8.6v-18.2l8.2-54.1-24.3-8.5-11.5-9.1-3.8 12.9-16-2.9-.4-9.7-12.2 11.6-10.3 2.9-12.3 2.8-1.6 3.9 3.2-.7-.5 51 1 4.7z"/><path fill="#a0616a" d="m401.3 307.1 6.2-60 1.6-24.7-17.3-3.1s.7 17.7-1.6 27.6c-2.3 9.8-.3 58.9-.2 60.2a8.4 8.4 0 1 0 11.3 0Z"/><path fill="#2f2e41" d="m384.4 259.6 4.8 1 16.5 3.4 1 .2 2-7.8 2.2-2.4 4.3-22.6.2-1.2 6.5-14 4.5-41.8-16.7 3-.3.3c-2.4 2.7-4 6.5-6.9 10.3-9.1 12.5-16.1 42.7-15.9 59.2 0 .3-.2.6-.6.9a9.2 9.2 0 0 0-1.6 11.5Z"/><path fill="#a0616a" d="m509.1 307.1-6.2-60-1.6-24.7 17.3-3.1s-.7 17.7 1.6 27.6c2.2 9.8.3 58.9.2 60.2a8.4 8.4 0 1 1-11.3 0Z"/><path fill="#2f2e41" d="m526 259.6-4.8 1-16.5 3.4-1 .2-2-7.8-2.2-2.4-4.3-22.6-.2-1.2-6.5-14 1.4-41.8 10.8 3 .3.3c2.4 2.7 4 6.5 6.9 10.3 9.1 12.5 16.1 42.7 15.9 59.2 0 .3.2.6.6.9a9.2 9.2 0 0 1 1.6 11.5Z"/><path fill="#b85252" d="m437.1 180.6 8-20.7 20-.3 6.7 21 24 134.1s-73.5 20.5-72.8-4.1a998 998 0 0 1 4.4-60.3Z"/><circle cx="454.6" cy="130.4" r="23.7" fill="#a0616a"/><path fill="#2f2e41" d="M429.5 113.2c3.9-4.2 8.7-11.9 23.3-15 18.1-4 26.7 12.2 22 12.5 13.4 4 4.9 31.6 1 29.3a18.8 18.8 0 0 1-7.6-12.9l-.7-6.5c0 5.3-5.5 6-11 4a7 7 0 0 1 4.9-4.8 23.8 23.8 0 0 1-14 6.1 9.5 9.5 0 0 1 4.6-6.4l-.2-.2a22.8 22.8 0 0 1-7.3 4.2c-3 .9-6.8.4-8.8-2a6.5 6.5 0 0 1-1.3-2.3c.5 4.2-2.4 9-4.6 8.2-1.8-.3-2.8-11.4-.3-14.2Z"/><path fill="#ccc" d="M598.4 518.2a1.2 1.2 0 0 1-1.2 1.2H316.9a1.2 1.2 0 0 1 0-2.4h280.3a1.2 1.2 0 0 1 1.2 1.2Z"/><path fill="#3f3d56" d="M307.3 271.9c-9.5 0-17.8 4.3-22.6 10.7a29.1 29.1 0 0 1 17.4-5.6c14.7 0 26.6 10.3 26.6 23v10.5h5.2v-15.7c0-12.7-12-23-26.6-23Z"/><path fill="#fff" d="M337.5 315.8h-62v-18.2c0-14.7 14-26.6 31-26.6s31 12 31 26.6Zm-60-2h58v-16.2c0-13.6-13-24.6-29-24.6s-29 11-29 24.6Z"/><path fill="#fff" d="M322.4 308.9h-31.8a5.4 5.4 0 0 1-5.3-5.4v-7.3c0-10 9.5-18.3 21.2-18.3s21.2 8.2 21.2 18.3v7.3a5.4 5.4 0 0 1-5.3 5.4Zm-16-29c-10.5 0-19.1 7.3-19.1 16.3v7.3a3.4 3.4 0 0 0 3.3 3.4h31.8a3.4 3.4 0 0 0 3.3-3.4v-7.3c0-9-8.6-16.3-19.2-16.3Z"/></svg>