<svg xmlns="http://www.w3.org/2000/svg" data-name="Layer 1" viewBox="0 0 807.5 500"><path fill="#e6e6e6" d="M56 463.2a22.7 22.7 0 0 0 22-4c7.7-6.4 10-17 12-26.8l5.8-29.1-12.1 8.3c-8.7 6-17.7 12.2-23.7 21s-8.7 20.5-3.8 30" data-name="Path 461"/><path fill="#f2f2f2" d="M57 498.4c-1.2-9-2.4-18-1.6-27 .8-8.1 3.3-16 8.3-22.4a37.1 37.1 0 0 1 9.5-8.6c1-.6 1.8.9.9 1.5a35.3 35.3 0 0 0-14 16.8c-3 7.8-3.5 16.2-3 24.4.3 5 1 10 1.7 14.8a.9.9 0 0 1-.6 1.1.9.9 0 0 1-1.1-.6Z" data-name="Path 462"/><path fill="#b85252" d="M300.6 305.5a7 7 0 0 1-2.9.7l-91.6 2.5a14.4 14.4 0 0 1-.6-28.7l91.6-2.6a7 7 0 0 1 7.2 6.9l.3 14.7a7 7 0 0 1-4 6.5ZM183 498.6h-14.7a7 7 0 0 1-7-7v-123a7 7 0 0 1 7-7h14.8a7 7 0 0 1 7 7v123a7 7 0 0 1-7 7Zm39.3 0h-14.8a7 7 0 0 1-7-7v-123a7 7 0 0 1 7-7h14.8a7 7 0 0 1 7 7v123a7 7 0 0 1-7 7Z"/><circle cx="196.7" cy="182.7" r="51" fill="#b85252"/><path fill="#2f2e41" d="M214 405.2h-36.7a43.3 43.3 0 0 1-37.5-65l51.3-89a6.5 6.5 0 0 1 11.2 0l50.3 87.2a44.6 44.6 0 0 1-38.6 66.8Zm-5.2-201.1c3.3 0 7.4-.2 10.5-2.5a8.1 8.1 0 0 0 3.2-6 5.5 5.5 0 0 0-1.8-4.6c-1.7-1.4-4-1.7-6.7-1l2.7-19.7-2-.2-3.2 23.1 1.7-.7c2-.9 4.6-1.3 6.2 0a3.5 3.5 0 0 1 1.1 3 6.1 6.1 0 0 1-2.3 4.5c-2.5 1.8-5.8 2-9.5 2.1Zm17.7-32.1h10.8v2h-10.8zm-34 0h10.8v2h-10.8z"/><path fill="#b85252" d="M184.7 393.8a7 7 0 0 1-.7-2.9l-2.5-91.6a14.4 14.4 0 0 1 28.8-.6l2.5 91.6a7 7 0 0 1-6.8 7.2l-14.8.3a7 7 0 0 1-6.5-4Z"/><path fill="#2f2e41" d="M192 145c6.2 8.1 16 13.5 26.4 12.2a23 23 0 0 0 20.1-18 29.7 29.7 0 0 0-7.8-26.1 45 45 0 0 0-27-12.7 67.1 67.1 0 0 0-52.3 16.4 64.1 64.1 0 0 0-16.7 22.3 62.7 62.7 0 0 0-5.1 27.1 68.4 68.4 0 0 0 22.5 49 63.4 63.4 0 0 0 5.4 4.2c1.5 1 3-1.5 1.5-2.6a64.3 64.3 0 0 1-25.8-43.3 60 60 0 0 1 14-48.3 65.8 65.8 0 0 1 45.8-22.4c17.6-.7 39.5 7.1 42.8 26.7 1.4 8.7-1.8 18-9.9 22.3a24 24 0 0 1-26.5-3.3 30.4 30.4 0 0 1-4.8-5c-1.2-1.5-3.8 0-2.6 1.5Z"/><path fill="#f1f1f1" d="M275.3 74.3 708 11.8l29.7 205.4L305 279.7z" data-name="ab2e16f2-9798-47da-b25d-769524f3c86f"/><path fill="#fff" d="m290.3 90.1 408-58.9L723 202.5l-408 59z" data-name="bf81c03f-68cf-4889-8697-1102f95f97bb"/><path fill="#e5e5e5" d="M273.4 62.5 706.2 0l2.6 18.4L276.1 81z" data-name="f065dccc-d150-492a-a09f-a7f3f89523f0"/><circle cx="288.7" cy="71.3" r="3.4" fill="#fff" data-name="bdbbf39c-df25-4682-8b85-5a6af4a1bd14"/><circle cx="301.6" cy="69.5" r="3.4" fill="#fff" data-name="abcd4292-0b1f-4102-9b5e-e8bbd87baabc"/><circle cx="314.5" cy="67.6" r="3.4" fill="#fff" data-name="a3fb731e-8b3d-41ca-96f2-91600dc0b434"/><path fill="#e6e6e6" d="M370.3 100.2h437.2v207.5H370.3z" data-name="ab2e16f2-9798-47da-b25d-769524f3c86f"/><path fill="#fff" d="M382.8 118H795v173.1H382.8z" data-name="bf81c03f-68cf-4889-8697-1102f95f97bb"/><path fill="#cbcbcb" d="M370.1 88.2h437.2v18.6H370.1z" data-name="f065dccc-d150-492a-a09f-a7f3f89523f0"/><circle cx="383.9" cy="99.1" r="3.4" fill="#fff" data-name="bdbbf39c-df25-4682-8b85-5a6af4a1bd14"/><circle cx="396.9" cy="99.1" r="3.4" fill="#fff" data-name="abcd4292-0b1f-4102-9b5e-e8bbd87baabc"/><circle cx="410" cy="99.1" r="3.4" fill="#fff" data-name="a3fb731e-8b3d-41ca-96f2-91600dc0b434"/><path fill="#e6e6e6" d="M620.3 144.3h58.1v4.4h-58.1zm0 12.8h89.6v4.4h-89.6zm.9 12.2h73.1v4.4h-73.1zm-.9 13.4H663v4.4h-42.7zm0 13.1h64.4v4.4h-64.4zm-26.5-52.9h7.1v7.1h-7.1zm0 12.8h7.1v7.1h-7.1zm0 12.2h7.1v7.1h-7.1zm0 13.4h7.1v7.1h-7.1zm0 13.1h7.1v7.1h-7.1zm26.5 14.5h58.1v4.4h-58.1zm0 12.8h89.6v4.4h-89.6zm.9 12.2h73.1v4.4h-73.1zm-.9 13.4H663v4.4h-42.7zm0 13.1h64.4v4.4h-64.4zm-26.5-52.9h7.1v7.1h-7.1zm0 12.8h7.1v7.1h-7.1zm0 12.2h7.1v7.1h-7.1zm0 13.4h7.1v7.1h-7.1zm0 13.1h7.1v7.1h-7.1zm-157.2-15.9h58.1v4.4h-58.1zm-7.7 11.4H502v4.4h-73.1zm74.5-66.4a38 38 0 0 1-55.9 33.4 38 38 0 1 1 55.9-33.4Z"/><circle cx="465.7" cy="176" r="10.3" fill="#fff"/><path fill="#fff" d="M483.3 207.5a53.1 53.1 0 0 1-35.6 0l7.7-15.2H476Z"/><path fill="#b85252" d="M351.6 282.2c-18 0-32.6-15.5-32.6-34.6 0-19 14.6-34.6 32.6-34.6s32.6 15.5 32.6 34.6c0 19-14.6 34.6-32.6 34.6Zm0-60.5c-13.1 0-23.8 11.6-23.8 25.9s10.7 25.8 23.8 25.8 23.8-11.6 23.8-25.8-10.7-25.9-23.8-25.9Z"/><path fill="#3f3d56" d="M382.4 342.5h-61.7a20.5 20.5 0 0 1-20.5-20.5v-60.5a14 14 0 0 1 14-14H389a14 14 0 0 1 14 14V322a20.5 20.5 0 0 1-20.5 20.5Z"/><path fill="#fff" d="M363.6 281.8a12 12 0 1 0-17.5 10.7v18.8h11v-18.8a12 12 0 0 0 6.5-10.7Z"/><path fill="#3f3d56" d="M382 500H1a1 1 0 0 1 0-2h381a1 1 0 0 1 0 2Z"/></svg>