<svg xmlns="http://www.w3.org/2000/svg" data-name="Layer 1" viewBox="0 0 866.5 637.1"><path fill="#f1f1f1" d="M805 637v-72.3s28.2 51.3 0 72.4Z"/><path fill="#f1f1f1" d="m806.7 637-53.2-48.9s56.8 14 53.2 49Z"/><path fill="#ffb7b7" d="M576.5 446a9.1 9.1 0 0 1 9.9-9.9l9.6-18.4 12.6 3-14 26a9.1 9.1 0 0 1-18-.7Zm57.4 179.5h-10.7l-5.1-41.1h15.8v41.1z"/><path fill="#2f2e41" d="M636.6 635.9h-34.4v-.5a13.4 13.4 0 0 1 13.4-13.4h21Z"/><path fill="#ffb7b7" d="m719.5 617.6-10.2 2.8-15.7-38.3 15.1-4.2 10.8 39.7z"/><path fill="#2f2e41" d="m724.9 626.8-33.2 9v-.4A13.4 13.4 0 0 1 701 619l20.3-5.5ZM614.4 448l-5.3 80.7 11.4 90.6 18.7-5.7.8-80.9 15-46.7 44.3 124.6 20.2-7.5-16.7-80.9-9.5-75.9-78.9 1.7z"/><path fill="#cbcbcb" d="m666 306.3-31.4 4.7-11.3 11.2-3.6 40.3 2.2 35.7-9.1 63s23-12.8 40.7 3.2 42.6 2.8 43.2-7.8Z"/><path fill="#2f2e41" d="m650.1 356.9 15.6-51h.2c1.2-.1 27.4-1.7 33.2 11.3l-1.7 53 2.4 83-48.5 10.5h-.3Zm-17.3-3.5 2.8-43.3c-20.4 1.3-20 15.8-20 16.4l-.3 64.7-4 69.1 14.8-1Z"/><path fill="#2f2e41" d="m586.7 432 18.2-42 12.6-23.3 6.6 42-23 34.3Z"/><path fill="#ffb7b7" d="M661.6 416.5A9.1 9.1 0 0 1 674 410l14.7-14.8 11.1 6.7-21 20.6a9.1 9.1 0 0 1-17-6Z"/><path fill="#2f2e41" d="m674 404.6 29.7-32.7-19.7-28.1 2-13.8 11.6-14.4.3.3c1.2 1.6 30.3 39.5 31.2 53.8.8 14.4-41 50.7-42.8 52.3l-.3.2Z"/><circle cx="647.9" cy="281.6" r="21.2" fill="#ffb7b7"/><path fill="#2f2e41" d="m667.8 264.7 1-2-5.1-2.7s-5.7-9.2-16-6.6-15 4.1-15 4.1l-5.1 2.6 2.6 2.6-4.7 1.6 3.1 1.5-3.6 2 2 10.7s3.2-8 9.4-5 17.5-1.6 17.5-1.6l9.9 19.1s2-6.7 5.6-4.9c0 0 9.3-14.7-1.6-21.4Z"/><path fill="#fff" d="M428.2 384.6 106 473.4 0 88.8 322.1 0Z"/><path fill="#f1f1f1" d="M428.2 384.6 106 473.4 0 88.8 322.1 0Zm-318 81.6 310.7-85.7L318 7.2 7.3 93Z"/><path fill="#e5e5e5" d="m252 172.3-80.7 22.3a4.5 4.5 0 0 1-5.5-3.1l-22.3-80.8a4.5 4.5 0 0 1 3.1-5.5L227.4 83a4.5 4.5 0 0 1 5.4 3l22.3 80.8a4.5 4.5 0 0 1-3 5.5Zm-104.9-65.4a2.7 2.7 0 0 0-1.9 3.3l22.3 80.8a2.7 2.7 0 0 0 3.3 1.8l80.7-22.2a2.7 2.7 0 0 0 1.9-3.3l-22.3-80.8a2.7 2.7 0 0 0-3.3-1.8Z"/><path fill="#b85252" d="m231.5 188.6-80.7 22.2a4 4 0 0 1-5-2.8l-22.2-80.7a4 4 0 0 1 2.8-5l80.7-22.2a4 4 0 0 1 5 2.8l22.2 80.7a4 4 0 0 1-2.8 5Z"/><path fill="#f1f1f1" d="M99.8 261.8 325 199.6l2.4 8.7-225.3 62.1zm6.2 22.6 225.4-62 2.4 8.6-225.3 62zm6.3 22.8L337.6 245l2.4 8.7-225.3 62.1zm11 39.8 225.3-62 2.3 8.6-225.2 62.1zm6.3 22.8 225.2-62.2 2.4 8.7L132 378.4zm6.3 22.6 225.2-62 2.4 8.6-225.3 62z"/><path fill="#fff" d="M531.3 472.1H197v-399h334.2Z"/><path fill="#e5e5e5" d="M531.3 472.1H197v-399h334.2ZM203 466.2h322.4V79.1H203Z"/><path fill="#b85252" d="M279.4 244.7h191v9h-191zm0 23.5h191v9h-191zm0 23.5h191v9h-191z"/><circle cx="263.9" cy="250.5" r="5.9" fill="#b85252"/><path fill="#e5e5e5" d="M279.4 143.5h191v9h-191zm0 23.5h191v9h-191zm0 23.5h191v9h-191z"/><circle cx="263.9" cy="148.4" r="5.9" fill="#e5e5e5"/><path fill="#e5e5e5" d="M279.4 346.9h191v9h-191zm0 23.5h191v9h-191zm0 23.4h191v9h-191z"/><circle cx="263.9" cy="351.7" r="5.9" fill="#e5e5e5"/><circle cx="515.7" cy="438.2" r="68.3" fill="#b85252"/><path fill="#fff" d="M534.6 433.8v-13a19 19 0 1 0-37.8 0v13a9.8 9.8 0 0 0-9.4 9.9v30.9H544v-31a9.8 9.8 0 0 0-9.4-9.8Zm-19-25.3a12.3 12.3 0 0 1 12.3 12.3v13h-24.5v-13a12.3 12.3 0 0 1 12.3-12.3Z"/><path fill="#b85252" d="M520.8 449.1a5 5 0 1 0-8 4.2v11h5.7v-11a5 5 0 0 0 2.3-4.2Z"/><path fill="#cbcbcb" d="M865.5 636.7h-381a1 1 0 0 1 0-2h381a1 1 0 0 1 0 2Z"/></svg>