<svg xmlns="http://www.w3.org/2000/svg" xml:space="preserve" viewBox="0 0 302.82 302.82"><path d="m4.58 174.22 62.48 62.48h.01c.36.36.73.7 1.11 1.01l.66.49.5.37c.3.2.6.36.9.54.12.06.23.14.36.2.28.16.58.29.87.42l.45.21.77.29c.2.07.41.15.62.21.2.07.42.11.63.16.27.07.53.15.8.2l.5.08.96.14c.13 0 .26 0 .4.02.34.02.7.05 1.05.05.2 0 .38-.02.58-.03a15.15 15.15 0 0 0 2.35-.26h.01l.2-.05c.42-.09.83-.19 1.24-.31l.46-.16c.31-.1.62-.21.92-.34.21-.08.4-.18.6-.28.25-.11.5-.22.72-.34.25-.13.48-.28.71-.42.18-.11.37-.21.55-.33l.81-.6.37-.28c.34-.28.67-.58.98-.88l.12-.11.02-.02.04-.05 62.43-62.42A15 15 0 0 0 129.54 153l-38.83 38.82c4.3-47.3 39.2-88.26 88.07-97.98a110.06 110.06 0 0 1 65.46 7.08 110.25 110.25 0 0 1 33.23 22.49 15 15 0 1 0 21.05-21.38 139.88 139.88 0 0 0-98.26-40.3c-9.08 0-18.24.88-27.34 2.69-61.89 12.31-106.14 63.91-112 123.7L25.8 152.99A15 15 0 1 0 4.6 174.2Z"/></svg>