<svg xmlns="http://www.w3.org/2000/svg" version="1.0" viewBox="0 0 500 500"><path d="M235 51h7c2-1 0-1-3-1-4 0-6 0-4 1zm23 0h7c2-1 0-1-4-1-3 0-5 0-3 1zm-34 1h4c1-1 0-1-2-1s-3 0-2 1zm48 0h4c1-1 0-1-2-1s-3 0-2 1zm-55 1h2c1-1 0-1-1-1s-2 0-1 1zm63 0h3c1-1 0-1-1-1-2 0-3 0-2 1zm-69 1h3c1-1 0-1-1-1-2 0-3 0-2 1zm75 0h3c1-1 0-1-1-1-2 0-3 0-2 1zm-79 1h2l-2-1v1zm85 0h2l-2-1v1zm-92 1h3l1-1-4 1zm97 0h4l-4-1c-2 0-2 0 0 1zm-104 2-1 1 4-1v-1l-3 1zm112 0 3 1v-1l-4-1c-1 0-1 1 1 1zm5 1c1 1 19 8 20 7l-8-3-12-4zm-129 3-4 2 10-4-6 2zm-8 3v1l2-1 1-1-3 1zm-13 6-8 4 17-8-9 4zm171-4 12 6 9 4a180 180 0 0 0-21-10zm-104 3A183 183 0 0 0 72 215c-2 9-2 13-2 34 0 25 1 34 6 53a183 183 0 0 0 121 121c17 5 28 7 48 8a181 181 0 1 0-18-361zm65 151c50 20 51 20 63 22 16 2 22 4 29 12 5 5 9 14 9 19v4H114l-2-2c-3-6-4-12-5-28 0-19 1-28 6-35s15-9 22-4l6 8c6 8 13 14 22 19a58 58 0 0 0 55 0c6-3 7-3 7-5-2-6-2-10 1-17 4-11 7-15 13-13l53 20zm101 71v8H111v-17h282v9zM148 78h1l2-2-3 2zm-6 3c-3 2-4 4-1 2l5-4-4 2zm213-1 11 8a246 246 0 0 1 49 48 187 187 0 0 0-60-56zm-220 7-3 2 3-2 3-3-3 3zm-6 4c-1 1-1 1 0 0l2-2-2 2zm-5 3-1 2 2-1 2-3-3 2zm-10 9-13 14-6 6 6-7a257 257 0 0 1 13-13z"/><path d="m91 128-7 10 6-7c5-7 6-10 1-3zm332 22c0 2 1 3 2 3l-1-3-3-3 1 3zm-349 4-1 2 2-2 1-2-2 2zm356 10 6 13 1 3-1-3c0-3-10-23-10-23l4 10zm7 17zM53 213h1v-2l-1 2zm395 10 1 16 1 10-1-12a142 142 0 0 0-1-14zm-397 2c0 1 0 2 1 1v-2c-1-1-1 0-1 1zm-1 10c0 2 0 3 1 2v-4c-1-1-1 0-1 2zm0 27c0 4 1 6 1 3v-8l-1 4zm399-1 1 4v-8c-1-2-1 0-1 4zM51 274c0 2 0 3 1 2v-4c-1-1-1 0-1 2zm397 0c0 2 0 3 1 2v-4c-1-1-1 0-1 2zm-396 7c0 1 0 2 1 1v-2c-1-1-1 0-1 1zm395 0c0 1 0 2 1 1v-2c-1-1-1 0-1 1zm-394 6c0 1 0 2 1 1v-2c-1-1-1 0-1 1zm393 0c0 1 0 2 1 1v-2c-1-1-1 0-1 1zm-1 5c0 1 0 2 1 1v-2c-1-1-1 0-1 1zm-391 1h1v-2l-1 2zm1 4h1v-2l-1 2zm389 0h1v-2l-1 2zm-388 4h1v-2l-1 2zm387 0h1v-2l-1 2zm-386 4h1v-2l-1 2zm384 3h1v-2l-1 2zm-3 10v1l1-3-1 1zm-376 2 1 2 1 1-1-3h-1zm2 5 1 2 1 1-1-3h-1zm370 2c-1 3-1 4 1 1l1-4-2 2zm-367 5 1 2 1 1-1-3h-1zm360 10zm-354 2 3 4-2-4-2-4 1 4zm5 9 2 2-1-2-2-2 1 2zm8 12 3 3-2-3-3-3 2 3zm3 4 2 2c1 1 1 1 0 0l-2-2zm3 4 2 2c1 1 1 1 0 0l-2-2zm3 4 3 4 3 3-2-4-4-3zm12 13zm37 30c2 1 8 5 7 3l-5-3h-2zm206 3c-4 2-4 2 0 1l3-2-3 1zm-198 2 17 8-9-5-8-4zm186 4-7 4 15-7-8 3zm-13 6-2 1c3 0 8-3 7-3l-5 2zm-152 0 3 1-1-1-2-1v1zm8 3 3 1-1-1-2-1v1zm131 2-5 2 13-5-8 2zm-12 4h2l-2-1v1zm-97 1h2l-2-1v1zm93 0h2l-2-1v1zm-89 1h2l-2-1v1zm85 0h2l-2-1v1zm-81 1h3c1-1 0-1-1-1-2 0-3 0-2 1zm75 0h3c1-1 0-1-1-1-2 0-3 0-2 1zm-69 1h2c1-1 0-1-1-1s-2 0-1 1zm61 0-12 1-11 1 11-1c10 0 23-2 16-2l-4 1zm-52 1 19 1a106 106 0 0 0-19-1z"/></svg>