<svg xmlns="http://www.w3.org/2000/svg" xmlns:xlink="http://www.w3.org/1999/xlink" contentScriptType="text/ecmascript" version="1.0" viewBox="0 0 259.66 172.08"><defs><path id="i" d="M13.6-10.98c1.93.52 3.38 1.21 4.34 2.07a4.23 4.23 0 0 1 1.45 3.33 4.6 4.6 0 0 1-1.03 2.94 6.6 6.6 0 0 1-3.02 2.03c-1.33.5-2.94.73-4.82.73-2.23 0-4.2-.28-5.91-.85a11.85 11.85 0 0 1-4-2.13l.81-1.1a12.12 12.12 0 0 0 7.36 2.42 4.7 4.7 0 0 0 2.19-.41c.5-.28.75-.68.75-1.18 0-.88-.88-1.57-2.63-2.06L5.92-6.1a9.42 9.42 0 0 1-4-2.17 4.53 4.53 0 0 1-1.4-3.31c0-1.07.33-2.02 1-2.88a6.6 6.6 0 0 1 2.92-2.05c1.28-.5 2.81-.75 4.6-.75 1.71 0 3.29.2 4.73.6 1.44.38 2.62.85 3.54 1.4l-.81 1.13a12.4 12.4 0 0 0-2.75-1.11 11.85 11.85 0 0 0-3.36-.47c-1.02 0-1.8.17-2.36.49-.54.3-.81.74-.81 1.3 0 .42.2.8.6 1.12a7.2 7.2 0 0 0 2.32.92zm0 0"/><path id="j" d="M6.94-15.67H.52v-1.46h21.43v1.46H15.5V0H6.94Zm0 0"/><path id="k" d="M12.13.13c-2.18 0-4.16-.34-5.93-1a9.44 9.44 0 0 1-4.17-2.97A7.52 7.52 0 0 1 .52-8.58c0-1.83.5-3.4 1.53-4.7a9.63 9.63 0 0 1 4.17-2.97 16.35 16.35 0 0 1 5.9-1.02c2.17 0 4.13.34 5.88 1.02a9.42 9.42 0 0 1 4.16 2.97 7.4 7.4 0 0 1 1.53 4.7 7.5 7.5 0 0 1-1.53 4.74A9.36 9.36 0 0 1 18-.88c-1.75.67-3.71 1-5.88 1zm0-1.46c.68 0 1.19-.3 1.51-.92.28-.47.47-1.3.56-2.52.05-.63.08-1.9.08-3.8 0-1.93-.04-3.3-.12-4.1a4.93 4.93 0 0 0-.53-2.22c-.34-.63-.84-.94-1.5-.94-.68 0-1.2.31-1.54.94-.28.5-.46 1.23-.54 2.22-.07.85-.1 2.22-.1 4.1 0 2.1.03 3.38.08 3.8.06 1.13.24 1.97.53 2.52.35.62.87.92 1.57.92zm0 0"/><path id="l" d="M.69-17.13h16.36a4.48 4.48 0 0 1 4.42 4.44c0 1.06-.33 2.01-.99 2.88a4.32 4.32 0 0 1-2.46 1.67c.88.24 1.6.7 2.17 1.39.56.69.84 1.46.84 2.33V0h-8.19v-5.31a2.14 2.14 0 0 0-1.07-1.97c-.34-.19-.7-.32-1.11-.4a9.11 9.11 0 0 0-1.2-.15l-.66-.01V0H.69Zm8.97 7.86a3.21 3.21 0 0 0 1.62-6.01 3.15 3.15 0 0 0-1.62-.44H8.8v6.47Zm0 0"/><path id="m" d="M.69-17.13h17.78v1.46H9.3v6.33h4.5v1.46H9.3v6.41h9.17V0H.69Zm0 0"/><path id="n" d="M.69-17.13h8.58V0H.69Zm8.58 8.55 4.01-8.54h8.53l-4.28 8.54L22.97 0h-8.64zm0 0"/><path id="o" d="M.69-17.13h7.97V0H.69Zm0 0"/><path id="p" d="M3.47.16c-.54 0-1.06-.1-1.55-.29a2.86 2.86 0 0 1-1.17-.8l.7-.96c.3.28.6.5.9.66.33.14.65.21.98.21.38 0 .7-.07.94-.21.25-.16.37-.4.37-.7a.78.78 0 0 0-.23-.6 1.32 1.32 0 0 0-.52-.33l-.97-.33c-1.24-.4-1.86-1.1-1.86-2.1 0-.6.23-1.12.67-1.55a2.59 2.59 0 0 1 1.9-.66c.5 0 .96.07 1.35.2.4.13.76.33 1.1.6l-.64 1a2.45 2.45 0 0 0-1.52-.66c-.33 0-.62.08-.84.24a.73.73 0 0 0-.35.64c0 .21.07.4.22.54.16.15.32.25.47.32l.97.32c.6.2 1.06.46 1.4.77.32.31.5.74.5 1.28 0 .7-.25 1.28-.74 1.73a3 3 0 0 1-2.08.68Zm0 0"/><path id="q" d="M5.9-7.52c.68 0 1.24.2 1.68.61.44.4.67.92.69 1.57V0H6.63v-4.8c-.03-.4-.15-.72-.38-.95-.22-.24-.55-.36-.98-.38a2 2 0 0 0-1.14.36c-.34.23-.6.56-.8.99-.19.42-.28.88-.28 1.39V0H1.42v-13.55H3v7.63c.27-.48.66-.87 1.17-1.16a3.46 3.46 0 0 1 1.74-.44zm0 0"/><path id="r" d="M.78-3.69a3.76 3.76 0 0 1 1.95-3.33c.62-.34 1.3-.51 2.08-.51.77 0 1.46.17 2.05.51a3.63 3.63 0 0 1 1.9 3.33A3.66 3.66 0 0 1 6.85-.33c-.6.33-1.3.5-2.07.5-.75 0-1.44-.15-2.05-.47A3.53 3.53 0 0 1 1.3-1.66a3.92 3.92 0 0 1-.52-2.03Zm1.66.02c0 .46.1.88.3 1.26.2.39.48.7.84.91.35.22.74.33 1.17.33.68 0 1.23-.24 1.67-.72a2.5 2.5 0 0 0 .67-1.78c0-.7-.22-1.3-.67-1.78-.44-.5-1-.74-1.67-.74-.44 0-.84.12-1.19.35a2.55 2.55 0 0 0-1.12 2.17zm0 0"/><path id="s" d="M4.81-1.22c.6 0 1.2-.21 1.77-.64l.75 1.22c-.39.25-.8.45-1.25.6a4.42 4.42 0 0 1-3.42-.29A3.6 3.6 0 0 1 .78-3.67c0-.7.18-1.35.53-1.94a4.08 4.08 0 0 1 3.5-1.92c.94 0 1.73.28 2.36.83a4.35 4.35 0 0 1 1.31 2.3L2.75-2.36c.2.36.49.65.84.85.36.2.76.3 1.22.3zM4.7-6.23c-.67 0-1.22.23-1.66.7a2.48 2.48 0 0 0-.64 1.76c0 .18 0 .32.02.41l4.2-1.54c-.17-.4-.42-.7-.75-.95a1.85 1.85 0 0 0-1.18-.37zm0 0"/><path id="t" d="M3.77-10.42v3.2h1.96v1.3H3.77V0H2.1v-5.92H.78v-1.3h1.33v-3.2zm0 0"/><path id="u" d="M2.98-5.53c.2-.4.46-.74.8-1.05a3.86 3.86 0 0 1 2.11-.95l-.06 1.62a2.8 2.8 0 0 0-1.44.32 2.6 2.6 0 0 0-1.34 2.3V0H1.42v-7.23h1.46Zm0 0"/><clipPath id="a"><path d="M150 118.56h11V127h-11zm0 0"/></clipPath><clipPath id="b"><path d="M149 118.56h13V128h-13zm0 0"/></clipPath><clipPath id="c"><path d="M229 168h32.8v21H229Zm0 0"/></clipPath><clipPath id="d"><path d="M114 177h147v27.8H114Zm0 0"/></clipPath><clipPath id="e"><path d="M113.3 176H261v28.8H113.3Zm0 0"/></clipPath><clipPath id="f"><path d="M214 178h16v26.8h-16zm0 0"/></clipPath><clipPath id="g"><path d="M113.3 184h9.7v20.8h-9.7zm0 0"/></clipPath><clipPath id="h"><path d="M113.3 187H231v17.8H113.3Zm0 0"/></clipPath></defs><g clip-path="url(#a)" transform="translate(-57.67 -98.72)"><path d="M150.86 126.14c-.1-1.8-.3-2.5.27-3.72 1-2.12 3.23-3.76 4.17-3.6 1.48.26 1.35 1.22 2.5 2.44a37.4 37.4 0 0 1 3.04 4.17zm0 0"/></g><g clip-path="url(#b)" transform="translate(-57.67 -98.72)"><path fill="none" stroke="#000" d="M221.07 263.07c-.52-10.02-1.7-13.9 1.51-20.67 5.57-11.78 17.9-20.95 23.13-20.04 8.21 1.44 7.5 6.78 13.93 13.59 6.44 6.78 16.8 23.2 16.8 23.2zm0 0" transform="matrix(.18025 0 0 .17972 111 78.86)"/></g><path stroke="#000" stroke-width=".18" d="M63.63 23.95s1.16 13.48-1.41 31.33c-2.39 16.52-3.6 15.66-4 21.3-.38 5.65.4 14.9.4 14.9s57.93 1.28 73.9.38c15.96-.9 54.33-7.44 54.33-7.44s-.26-4.88-5.54-7.58c-5.27-2.7-15.57-3.59-21.63-5.77-6.05-2.19-24.2-6.55-33.6-18.49-9.4-11.94-17.81-25.98-21.9-27.86-3.76.51-11.7 1.03-21.75.77-10.04-.26-18.8-1.54-18.8-1.54Zm0 0"/><path fill="#fff" stroke="#d8d8d8" stroke-width=".18" d="M96.72 53.54c0 7.2-6.05 13.03-13.52 13.03-7.46 0-13.52-5.83-13.52-13.03 0-7.2 6.06-13.03 13.52-13.03 7.47 0 13.52 5.84 13.52 13.03zm0 0"/><path fill="none" stroke="#fff" stroke-width="1.34" d="M109.48 83.48c0 1.08-.94 1.96-2.1 1.96-1.15 0-2.09-.88-2.09-1.96s.94-1.96 2.1-1.96c1.15 0 2.09.88 2.09 1.96zm14.7-.22c0 1.08-.94 1.96-2.1 1.96-1.15 0-2.09-.88-2.09-1.96s.94-1.96 2.1-1.96c1.15 0 2.1.88 2.1 1.96zm0 0"/><path fill="none" stroke="#fff" stroke-width="1.38" d="M107.37 34.09c-.5.89-1.8 1.07-2.92.4-1.12-.67-1.62-1.93-1.12-2.83.5-.89 1.8-1.07 2.92-.4 1.12.67 1.62 1.94 1.12 2.83zm5.8 10.46c-.5.89-1.8 1.07-2.93.4-1.11-.67-1.62-1.93-1.12-2.82.5-.9 1.8-1.08 2.92-.4 1.12.66 1.62 1.93 1.13 2.82zm6.43 9.5c-.5.89-1.8 1.07-2.92.4-1.12-.67-1.62-1.93-1.12-2.82.5-.9 1.8-1.08 2.92-.4 1.12.66 1.62 1.93 1.12 2.82zm0 0"/><path fill="none" stroke="#fff" stroke-width="1.4" d="M128.1 62.49c-.5.92-1.8 1.1-2.92.42-1.11-.7-1.61-2-1.12-2.9.5-.92 1.8-1.1 2.91-.42 1.12.68 1.62 1.98 1.13 2.9zm10.01 5.65c-.32.99-1.57 1.4-2.79.91-1.21-.48-1.94-1.67-1.6-2.66.32-.98 1.57-1.4 2.79-.91 1.21.48 1.93 1.68 1.6 2.66zm0 0"/><path fill="none" stroke="#fff" stroke-width="1.24" d="M148.83 72.25c-.32.8-1.54 1.14-2.73.75-1.19-.4-1.9-1.37-1.57-2.17.32-.8 1.54-1.13 2.73-.74 1.19.39 1.89 1.36 1.57 2.16zm10.82 2.87c-.32.8-1.55 1.13-2.73.74-1.2-.4-1.9-1.36-1.57-2.16.32-.8 1.54-1.14 2.73-.75 1.18.4 1.89 1.36 1.57 2.17zm0 0"/><path fill="none" stroke="#fff" stroke-width="1.19" d="M170.91 77.15c-.17.77-1.32 1.26-2.56 1.1-1.24-.17-2.1-.93-1.92-1.7.17-.76 1.32-1.26 2.56-1.1 1.24.17 2.1.93 1.92 1.7zm0 0"/><path fill="#fff" d="M198.7 80.09c-1.15-2.19-2.76-3.91-5.03-4.47-4.68-1.15-13.7-.35-16.48-.03-2.76.32 5.76 6.97 9.14 8.89 2.37-.97 10.91-2.46 12.37-4.4zm0 0"/><g clip-path="url(#c)" transform="translate(-57.67 -98.72)"><path fill="none" stroke="#000" stroke-width="5" d="M806.48 556.12c-6.41-12.15-15.34-21.74-27.9-24.82-26.01-6.41-76.07-1.96-91.44-.18-15.34 1.79 31.97 38.76 50.71 49.45 13.13-5.39 60.53-13.71 68.63-24.45zm0 0" transform="matrix(.18025 0 0 .17972 111 78.86)"/></g><g clip-path="url(#d)" transform="translate(-57.67 -98.72)"><path fill="#fff" d="M114.8 187.16s36.3 1.45 62.1 1.09c25.56-.36 65.94-4.49 79.6-10.9.41 1.24 1.9 2.4 2.42 3.83.61 1.69 2.33 8.48 1.3 11.04-1.03 2.57-17.88 6.72-30.76 8.78-12.87 2.05-30.14 2.07-43.8 2.07-13.64 0-43.25 1.6-54.58 1.23-11.35-.36-14.77-1.31-16.97-3.08-.34-3.18.7-14.06.7-14.06zm0 0"/></g><g clip-path="url(#e)" transform="translate(-57.67 -98.72)"><path fill="none" stroke="#000" stroke-linejoin="round" stroke-width="5" d="M21.09 602.63s201.34 8.06 344.46 6.04c141.83-2 365.8-24.97 441.58-60.6 2.32 6.85 10.58 13.33 13.46 21.26 3.38 9.4 12.94 47.17 7.22 61.45-5.72 14.28-99.23 37.38-170.66 48.81-71.43 11.44-167.23 11.52-242.95 11.52s-239.99 8.9-302.85 6.9c-62.98-2.03-81.92-7.33-94.12-17.16-1.9-17.69 3.86-78.22 3.86-78.22zm0 0" transform="matrix(.18025 0 0 .17972 111 78.86)"/></g><g clip-path="url(#f)" transform="translate(-57.67 -98.72)"><path fill="none" stroke="#000" stroke-width="6" d="M605.7 590.59c7.5 30.34 16.08 71.42 18.23 94.28" transform="matrix(.18025 0 0 .17972 111 78.86)"/></g><g clip-path="url(#g)" transform="translate(-57.67 -98.72)"><path fill="none" stroke="#000" stroke-width="5" d="m20.72 614.52 14.63 2.5-.72 72.14" transform="matrix(.18025 0 0 .17972 111 78.86)"/></g><g clip-path="url(#h)" transform="translate(-57.67 -98.72)"><path fill="none" stroke="#000" stroke-width="8" d="M34.63 660.57s16.39 6.42 42.65 6.94c26.27.5 158.09-3.02 198.48-3.04 35.87-.03 164.64-1.9 213.14-4.05 52.53-2.32 130.33-11.1 130.33-11.1" transform="matrix(.18025 0 0 .17972 111 78.86)"/></g><path fill="none" stroke="#fff" stroke-linecap="round" stroke-width=".88" d="M95.58 26.16c6.42 10.31 7.8 19.54 17.01 29.85 9.2 10.31 16.67 16.65 29.34 19.9 12.67 3.26 40.27 6.7 40.27 6.7"/><path fill="#fff" stroke="#000" stroke-linejoin="round" stroke-width=".54" d="M104.83 32.09c.3.91.5 1.07.83 1.6 4.08-.2 4.57-1.79 7.26-1.8-.15-.86-1.44-2.97-2.53-3.52-2.97.73-3.54 1.36-5.56 3.72zm5.67 10.39c.3.91.68 1.06 1 1.6 4.1-.21 4.59-1.6 7.28-1.6-.14-.87-1.44-2.98-2.53-3.53-2.97.73-3.74 1.17-5.75 3.53zm6.98 9.3c.3.91.19 1.27.5 1.8 3.35-2.61 4.99-2.73 7.17-4.35a5.43 5.43 0 0 0-2.4-3c-2.98.73-3.26 3.19-5.27 5.55zm8.02 8.58c.3.91.5 1.07.82 1.6 3.01-.65 5.02-3.34 6.43-4.15-.15-.86-1.35-1.74-2.44-2.29-2.97.73-4.88 3.43-4.82 4.84zm9.58 6.24c.3.92.7 1 1.6 1.2 2.81-1.63 2.81-3.59 3.35-5.16-.14-.86-2.22-1.3-3.3-1.85-.95 2.24-.81 4.2-1.65 5.82zm10.52 4.58c.66.39 1.46.58 2.34.62.76-2.29 1-4.17.97-5.83-.43-.76-2.5-1.4-3.72-1.54.8 1.86.64 4.94.4 6.75zm11 2.94c.73.64 1.17.78 2.03.5 1.2-1.74.56-3.8-.13-4.75-.56-.67-1.84-1-3.06-.92a21.2 21.2 0 0 0 1.17 5.17zm11.1 2.48c.73.64 1.12.51 1.99.24 1.07-1.32.91-2.15.46-3.41-.56-.68-2.76-1.18-3.98-1.12.21 1 1.45 2.48 1.53 4.3zm0 0"/><use xlink:actuate="onLoad" xlink:href="#i" xlink:show="embed" xlink:type="simple" width="100%" height="100%" x="105.77" y="231.35" transform="translate(-57.67 -98.72)"/><use xlink:actuate="onLoad" xlink:href="#j" xlink:show="embed" xlink:type="simple" width="100%" height="100%" x="125.7" y="231.35" transform="translate(-57.67 -98.72)"/><use xlink:actuate="onLoad" xlink:href="#k" xlink:show="embed" xlink:type="simple" width="100%" height="100%" x="148.17" y="231.35" transform="translate(-57.67 -98.72)"/><use xlink:actuate="onLoad" xlink:href="#l" xlink:show="embed" xlink:type="simple" width="100%" height="100%" x="172.38" y="231.35" transform="translate(-57.67 -98.72)"/><use xlink:actuate="onLoad" xlink:href="#m" xlink:show="embed" xlink:type="simple" width="100%" height="100%" x="194.57" y="231.35" transform="translate(-57.67 -98.72)"/><use xlink:actuate="onLoad" xlink:href="#n" xlink:show="embed" xlink:type="simple" width="100%" height="100%" x="213.74" y="231.35" transform="translate(-57.67 -98.72)"/><use xlink:actuate="onLoad" xlink:href="#o" xlink:show="embed" xlink:type="simple" width="100%" height="100%" x="237.39" y="231.35" transform="translate(-57.67 -98.72)"/><use xlink:actuate="onLoad" xlink:href="#j" xlink:show="embed" xlink:type="simple" width="100%" height="100%" x="246.75" y="231.35" transform="translate(-57.67 -98.72)"/><use xlink:actuate="onLoad" xlink:href="#p" xlink:show="embed" xlink:type="simple" width="100%" height="100%" x="144.17" y="250.63" transform="translate(-57.67 -98.72)"/><use xlink:actuate="onLoad" xlink:href="#q" xlink:show="embed" xlink:type="simple" width="100%" height="100%" x="151.3" y="250.63" transform="translate(-57.67 -98.72)"/><use xlink:actuate="onLoad" xlink:href="#r" xlink:show="embed" xlink:type="simple" width="100%" height="100%" x="160.97" y="250.63" transform="translate(-57.67 -98.72)"/><use xlink:actuate="onLoad" xlink:href="#s" xlink:show="embed" xlink:type="simple" width="100%" height="100%" x="170.49" y="250.63" transform="translate(-57.67 -98.72)"/><use xlink:actuate="onLoad" xlink:href="#p" xlink:show="embed" xlink:type="simple" width="100%" height="100%" x="179.58" y="250.63" transform="translate(-57.67 -98.72)"/><use xlink:actuate="onLoad" xlink:href="#t" xlink:show="embed" xlink:type="simple" width="100%" height="100%" x="186.71" y="250.63" transform="translate(-57.67 -98.72)"/><use xlink:actuate="onLoad" xlink:href="#p" xlink:show="embed" xlink:type="simple" width="100%" height="100%" x="192.23" y="250.63" transform="translate(-57.67 -98.72)"/><use xlink:actuate="onLoad" xlink:href="#t" xlink:show="embed" xlink:type="simple" width="100%" height="100%" x="199.36" y="250.63" transform="translate(-57.67 -98.72)"/><use xlink:actuate="onLoad" xlink:href="#r" xlink:show="embed" xlink:type="simple" width="100%" height="100%" x="205.65" y="250.63" transform="translate(-57.67 -98.72)"/><use xlink:actuate="onLoad" xlink:href="#u" xlink:show="embed" xlink:type="simple" width="100%" height="100%" x="215.18" y="250.63" transform="translate(-57.67 -98.72)"/><use xlink:actuate="onLoad" xlink:href="#s" xlink:show="embed" xlink:type="simple" width="100%" height="100%" x="221.75" y="250.63" transform="translate(-57.67 -98.72)"/><path fill="none" stroke="#000" stroke-linecap="round" stroke-width="3.31" d="M31.66 124.28h7.94m-7.94 25.67H77.3"/><path fill="none" stroke="#000" stroke-linecap="round" stroke-width="3.3" d="M31.65 149.95v-24.5"/><path fill="none" stroke="#000" stroke-linecap="round" stroke-width="3.31" d="M220.06 122.62H228m-47.14 25.68h45.64"/><path fill="none" stroke="#000" stroke-linecap="round" stroke-width="3.3" d="M228 148.3v-24.5"/></svg>
